<svg width="1280" height="320" viewBox="0 0 1280 320" fill="none" xmlns="http://www.w3.org/2000/svg" role="img" aria-label="Flawless Voice Agent">
    <defs>
          <linearGradient id="coral" x1="0" y1="0" x2="1" y2="1">
                  <stop offset="0" stop-color="#F97279"/>
                  <stop offset="1" stop-color="#F93C4B"/>
          </linearGradient>
    </defs>
    <rect width="1280" height="320" fill="#F6F4F1"/>
    <rect x="0" y="0" width="6" height="320" fill="url(#coral)"/>
    <g stroke-linecap="round" fill="none">
          <path d="M120 160 L150 160 L162 120 L174 200 L186 96 L198 224 L210 140 L222 160 L252 160" stroke="#1A1819" stroke-width="3"/>
          <path d="M252 160 C 300 160 320 96 380 96 L470 96" stroke="url(#coral)" stroke-width="3"/>
          <path d="M252 160 L470 160" stroke="#C9C3B8" stroke-width="2"/>
          <path d="M252 160 C 300 160 320 224 380 224 L470 224" stroke="#C9C3B8" stroke-width="2"/>
          <circle cx="470" cy="96" r="5" fill="#F93C4B"/>
          <circle cx="470" cy="160" r="4" fill="#8A8178"/>
          <circle cx="470" cy="224" r="4" fill="#8A8178"/>
    </g>
    <g font-family="'Satoshi','Helvetica Neue',Arial,sans-serif">
          <text x="560" y="150" font-size="64" font-weight="700" letter-spacing="-2" fill="#1A1819">Flawless Voice Agent</text>
          <text x="562" y="196" font-size="22" font-weight="500" letter-spacing="0.5" fill="#5E5658">The optimal hybrid voice-agent platform</text>
          <text x="562" y="232" font-size="15" font-weight="500" letter-spacing="3" fill="#F93C4B">FAST &#183; DEEP &#183; FALLBACK</text>
    </g>
    <text x="562" y="270" font-family="'JetBrains Mono',ui-monospace,monospace" font-size="13" letter-spacing="1" fill="#8A8178">registry-driven &#183; compliance-ready &#183; 10k concurrent</text>
</svg>
